<svg width="227" height="227" viewBox="0 0 227 227" fill="none" xmlns="http://www.w3.org/2000/svg">
<path d="M26.2305 26.2305C60.3431 -7.88217 115.677 -7.88217 149.79 26.2305C182.158 58.5956 183.833 110.11 154.708 144.405C153.179 146.262 151.541 148.046 149.79 149.79C148.046 151.537 146.258 153.179 144.405 154.708C110.11 183.833 58.5956 182.158 26.2305 149.79C-7.88217 115.681 -7.88217 60.3431 26.2305 26.2305Z" fill="#E6E9ED"/>
<path d="M44.3245 150.776C55.1027 158.293 67.6469 162.884 80.7307 164.101C85.5728 164.574 90.4512 164.574 95.2932 164.101C108.108 162.9 120.705 158.454 131.699 150.776V150.74C135.34 148.228 138.835 145.315 142.075 142.072C171.928 112.222 171.928 63.7982 142.075 33.9487C112.226 4.09556 63.8018 4.09556 33.9523 33.9487C4.09922 63.7982 4.09922 112.222 33.9523 142.072C37.1925 145.315 40.6875 148.224 44.3281 150.74V150.776H44.3245Z" fill="#5D9CEC"/>
<path d="M120.778 77.2357H55.2827V47.9651C55.2827 43.9604 58.5593 40.6838 62.564 40.6838H113.569C117.577 40.6838 120.85 43.9604 120.85 47.9651V77.2357H120.778Z" fill="#F5F7FA"/>
<path d="M113.569 40.6838H102.636C106.645 40.6838 109.917 43.9604 109.917 47.9651V77.2357H120.85V47.9651C120.85 43.9604 117.574 40.6838 113.569 40.6838Z" fill="#E6E9ED"/>
<path d="M80.7305 164.101L73.4492 131.699L80.7305 135.34L88.0117 131.699L95.293 135.34L102.574 131.699L95.293 164.101C90.4509 164.574 85.5725 164.574 80.7305 164.101Z" fill="#5D9CEC"/>
<path d="M131.699 150.74V150.776C120.921 158.293 108.377 162.884 95.293 164.101L102.574 131.699H113.496C123.581 131.699 131.699 139.854 131.699 149.903V150.74Z" fill="#F5F7FA"/>
<path d="M113.496 131.699H102.574C104.964 131.699 107.331 132.169 109.54 133.083C111.748 133.998 113.754 135.339 115.444 137.03C117.134 138.72 118.473 140.727 119.387 142.936C120.3 145.145 120.769 147.512 120.766 149.903V157.078C124.58 155.288 128.237 153.181 131.699 150.78V149.906C131.702 147.515 131.232 145.147 130.319 142.937C129.405 140.727 128.064 138.719 126.373 137.028C124.682 135.337 122.675 133.996 120.465 133.082C118.256 132.167 115.887 131.698 113.496 131.699Z" fill="#E6E9ED"/>
<path d="M88.0117 120.777C93.2178 120.777 98.2055 119.54 102.574 117.355V131.699L95.293 135.34L88.0117 131.699L80.7305 135.34L73.4492 131.699V117.355C77.818 119.54 82.8056 120.777 88.0117 120.777Z" fill="#87BCF4"/>
<path d="M73.4492 131.699L80.7305 164.101C67.6466 162.884 55.1024 158.293 44.3242 150.776V149.903C44.3242 139.854 52.4792 131.699 62.5273 131.699H73.4492Z" fill="#F5F7FA"/>
<path d="M159.332 179.938L164.501 174.768L174.768 164.501L179.937 159.332L222.096 201.49C224.823 204.225 226.355 207.931 226.355 211.793C226.355 215.656 224.823 219.361 222.096 222.096C219.361 224.824 215.656 226.355 211.793 226.355C207.93 226.355 204.225 224.824 201.49 222.096L159.332 179.938Z" fill="#656D78"/>
<path d="M149.793 149.793C151.541 148.05 153.183 146.262 154.712 144.409L174.772 164.505L164.505 174.772L144.445 154.748L144.409 154.712C146.262 153.179 148.046 151.541 149.793 149.793Z" fill="#CCD1D9"/>
<path d="M55.2825 77.2356H120.777V88.0118C120.776 94.1126 119.071 100.092 115.855 105.276C112.639 110.46 108.039 114.644 102.574 117.355C98.2055 119.543 93.2178 120.777 88.0117 120.777C82.8056 120.777 77.818 119.54 73.4492 117.355C68.0091 114.661 63.4255 110.507 60.2108 105.357C56.9962 100.207 55.2772 94.2646 55.2461 88.1939V77.2356H55.2825Z" fill="#EAC6BB"/>
<path d="M109.845 77.2356V88.0118C109.843 94.1126 108.138 100.092 104.922 105.276C101.706 110.46 97.1068 114.644 91.6416 117.355C88.7697 118.768 85.7054 119.749 82.5474 120.268C84.3313 120.57 86.1479 120.781 88.0119 120.781C96.7019 120.781 105.036 117.329 111.181 111.184C117.325 105.04 120.778 96.7055 120.778 88.0155V77.2392H109.845V77.2356Z" fill="#D3B1A9"/>
<path d="M88.0264 69.8525C87.0608 69.8525 86.1348 69.469 85.4521 68.7862C84.7693 68.1035 84.3857 67.1775 84.3857 66.2119V51.6057C84.3857 50.6402 84.7693 49.7142 85.4521 49.0314C86.1348 48.3487 87.0608 47.9651 88.0264 47.9651C88.9919 47.9651 89.9179 48.3487 90.6007 49.0314C91.2834 49.7142 91.667 50.6402 91.667 51.6057V66.2119C91.667 67.1775 91.2834 68.1035 90.6007 68.7862C89.9179 69.469 88.9919 69.8525 88.0264 69.8525Z" fill="#ED5565"/>
<path d="M95.3115 62.5967H80.7417C79.7761 62.5967 78.8501 62.2131 78.1674 61.5304C77.4846 60.8476 77.1011 59.9216 77.1011 58.9561C77.1011 57.9905 77.4846 57.0645 78.1674 56.3817C78.8501 55.699 79.7761 55.3154 80.7417 55.3154H95.3115C96.277 55.3154 97.203 55.699 97.8858 56.3817C98.5685 57.0645 98.9521 57.9905 98.9521 58.9561C98.9521 59.9216 98.5685 60.8476 97.8858 61.5304C97.203 62.2131 96.277 62.5967 95.3115 62.5967Z" fill="#ED5565"/>
</svg>
