<svg width="283" height="224" viewBox="0 0 283 224" fill="none" xmlns="http://www.w3.org/2000/svg">
<path d="M182.865 108.722C191.701 108.722 198.865 115.885 198.865 124.722L198.865 223.99L84.135 223.99L84.135 124.722C84.135 115.885 91.2985 108.722 100.135 108.722L182.865 108.722Z" fill="#FF6C6C"/>
<path d="M182.865 108.722C191.701 108.722 198.865 115.885 198.865 124.722L198.865 223.454L141.5 223.454L141.5 108.722L182.865 108.722Z" fill="#E63950"/>
<path d="M0 155.864C0 147.027 7.16344 139.864 16 139.864H84.1351V224H16C7.16342 224 0 216.837 0 208V155.864Z" fill="#E63950"/>
<path d="M283 173.893C283 165.056 275.837 157.893 267 157.893H198.865V223.454H267C275.837 223.454 283 216.29 283 207.454V173.893Z" fill="#AE2538"/>
<path d="M155.705 134.4V197.229H142.246V147.009H141.873L127.295 156.028V144.248L143.054 134.4H155.705Z" fill="#FFD316"/>
<path d="M126.088 65.5182H126.086C107.473 65.5182 92.3301 50.3711 92.3301 31.7525V19.4333C92.3301 17.8422 93.62 16.5522 95.2111 16.5522H113.721C115.313 16.5522 116.603 17.8422 116.603 19.4333C116.603 21.0245 115.313 22.3144 113.721 22.3144H98.0922V31.7525C98.0922 47.1937 110.65 59.7558 126.086 59.7558C127.677 59.7558 128.968 61.0458 128.968 62.6369C128.968 64.2281 127.679 65.5182 126.088 65.5182ZM156.915 65.5182C155.324 65.5182 154.033 64.2283 154.033 62.6371C154.033 61.046 155.321 59.756 156.912 59.756H156.915C172.35 59.756 184.908 47.1939 184.908 31.7527V22.3144H169.278C167.687 22.3144 166.397 21.0245 166.397 19.4333C166.397 17.8422 167.687 16.5522 169.278 16.5522H187.789C189.38 16.5522 190.67 17.8422 190.67 19.4333V31.7525C190.67 50.3711 175.528 65.5182 156.915 65.5182Z" fill="#FFAA3F"/>
<path d="M169.252 10.3804H113.721C112.13 10.3804 110.84 11.6703 110.84 13.2615V41.0352C110.84 47.1422 112.419 52.2656 115.666 56.6979C122.111 65.4971 132.528 68.1193 132.436 74.9421C132.436 81.818 117.01 82.3517 117.01 93.4968C117.01 95.0879 118.3 96.3779 119.891 96.3779H163.081C164.673 96.3779 165.962 95.0879 165.962 93.4968C165.962 82.3517 150.537 81.818 150.537 74.9421C150.445 68.1193 160.862 65.4971 167.307 56.6979C170.554 52.2656 172.133 47.1422 172.133 41.0352V13.2615C172.133 11.6703 170.843 10.3804 169.252 10.3804Z" fill="#FFD316"/>
<path d="M165.962 93.4968C165.962 82.3517 150.537 81.818 150.537 74.9421C150.445 68.1193 160.862 65.4971 167.307 56.6979C170.554 52.2656 172.133 47.1422 172.133 41.0352V13.2615C172.133 11.6703 170.843 10.3804 169.251 10.3804H141.487V96.3779H163.082C164.673 96.3779 165.962 95.0881 165.962 93.4968Z" fill="#FFAA3F"/>
<path d="M158.901 35.3767C158.093 32.8877 155.882 31.1807 153.269 31.0284L148.94 30.7764L147.363 26.7377C146.411 24.2997 144.104 22.7241 141.487 22.7241C138.87 22.7241 136.563 24.2995 135.611 26.7375L134.034 30.7764L129.705 31.0284C127.092 31.1807 124.881 32.8875 124.073 35.3767C123.264 37.8662 124.049 40.5468 126.074 42.2055L129.427 44.9537L128.33 49.1482C127.667 51.6801 128.607 54.3104 130.725 55.8493C132.842 57.3874 135.634 57.4686 137.837 56.0559L141.487 53.7155L145.137 56.0559C147.34 57.4686 150.132 57.3876 152.25 55.8493C154.368 54.3104 155.307 51.6801 154.645 49.1482L153.547 44.9537L156.9 42.2055C158.924 40.5468 159.71 37.8664 158.901 35.3767Z" fill="#FFAA3F"/>
<path d="M152.249 55.8495C154.367 54.3106 155.307 51.6804 154.644 49.1484L153.546 44.954L156.9 42.2058C158.924 40.547 159.71 37.8666 158.901 35.377C158.092 32.8879 155.881 31.181 153.269 31.0286L148.94 30.7767L147.363 26.7379C146.411 24.2999 144.104 22.7244 141.487 22.7244V53.7158L145.137 56.0562C147.34 57.4687 150.132 57.3876 152.249 55.8495Z" fill="#FF8A53"/>
<path d="M172.364 105.841H110.609C109.017 105.841 107.728 104.551 107.728 102.96V93.4968C107.728 91.9057 109.017 90.6157 110.609 90.6157H172.364C173.956 90.6157 175.245 91.9057 175.245 93.4968V102.96C175.245 104.551 173.956 105.841 172.364 105.841Z" fill="#FFAA3F"/>
<path d="M175.245 102.96V93.4968C175.245 91.9057 173.955 90.6157 172.364 90.6157H141.487V105.841H172.365C173.956 105.841 175.245 104.551 175.245 102.96Z" fill="#FF8A53"/>
<path d="M178.508 108.722H104.466C102.875 108.722 101.585 107.432 101.585 105.841C101.585 104.25 102.875 102.96 104.466 102.96H178.508C180.099 102.96 181.389 104.25 181.389 105.841C181.389 107.432 180.099 108.722 178.508 108.722Z" fill="#344779"/>
<path d="M181.388 105.841C181.388 104.25 180.098 102.96 178.507 102.96H141.487V108.722H178.508C180.098 108.722 181.388 107.432 181.388 105.841Z" fill="#0C1638"/>
</svg>
