<svg width="283" height="224" viewBox="0 0 283 224" fill="none" xmlns="http://www.w3.org/2000/svg">
<path d="M182.865 108.722C191.702 108.722 198.865 115.885 198.865 124.722L198.865 223.99L84.1355 223.99L84.1355 124.722C84.1355 115.885 91.299 108.722 100.136 108.722L182.865 108.722Z" fill="#FF6C6C"/>
<path d="M182.865 108.722C191.702 108.722 198.865 115.885 198.865 124.722L198.865 223.454L141.5 223.454L141.5 108.722L182.865 108.722Z" fill="#E63950"/>
<path d="M0 155.864C0 147.027 7.16344 139.864 16 139.864H84.1351V224H16C7.16342 224 0 216.837 0 208V155.864Z" fill="#E63950"/>
<path d="M283 173.893C283 165.056 275.837 157.893 267 157.893H198.865V223.454H267C275.837 223.454 283 216.29 283 207.454V173.893Z" fill="#AE2538"/>
<path d="M230.779 132.306H230.778C219.872 132.306 211 123.431 211 112.522V105.304C211 104.372 211.756 103.616 212.688 103.616H223.534C224.466 103.616 225.222 104.372 225.222 105.304C225.222 106.236 224.466 106.992 223.534 106.992H214.376V112.522C214.376 121.569 221.734 128.93 230.778 128.93C231.711 128.93 232.467 129.685 232.467 130.618C232.467 131.55 231.711 132.306 230.779 132.306ZM248.841 132.306C247.909 132.306 247.152 131.55 247.152 130.618C247.152 129.685 247.907 128.93 248.84 128.93H248.841C257.885 128.93 265.243 121.569 265.243 112.522V106.992H256.085C255.153 106.992 254.397 106.236 254.397 105.304C254.397 104.372 255.153 103.616 256.085 103.616H266.931C267.863 103.616 268.619 104.372 268.619 105.304V112.522C268.619 123.431 259.747 132.306 248.841 132.306Z" fill="#FFAA3F"/>
<path d="M256.07 100H223.534C222.601 100 221.846 100.756 221.846 101.688V117.961C221.846 121.539 222.771 124.541 224.673 127.138C228.449 132.294 234.553 133.83 234.499 137.828C234.499 141.856 225.461 142.169 225.461 148.699C225.461 149.631 226.217 150.387 227.149 150.387H252.454C253.387 150.387 254.143 149.631 254.143 148.699C254.143 142.169 245.104 141.856 245.104 137.828C245.051 133.83 251.154 132.294 254.931 127.138C256.833 124.541 257.758 121.539 257.758 117.961V101.688C257.758 100.756 257.002 100 256.07 100Z" fill="#FFD316"/>
<path d="M254.142 148.699C254.142 142.169 245.104 141.856 245.104 137.828C245.05 133.83 251.154 132.294 254.93 127.138C256.833 124.541 257.758 121.539 257.758 117.961V101.688C257.758 100.756 257.002 100 256.069 100H239.802V150.387H252.454C253.387 150.387 254.142 149.631 254.142 148.699Z" fill="#FFAA3F"/>
<path d="M250.005 114.646C249.531 113.187 248.235 112.187 246.704 112.098L244.168 111.95L243.244 109.584C242.686 108.156 241.335 107.232 239.801 107.232C238.268 107.232 236.916 108.155 236.358 109.584L235.434 111.95L232.898 112.098C231.367 112.187 230.072 113.187 229.598 114.646C229.124 116.104 229.584 117.675 230.771 118.647L232.735 120.257L232.092 122.715C231.704 124.198 232.255 125.739 233.495 126.641C234.736 127.542 236.372 127.59 237.663 126.762L239.801 125.391L241.94 126.762C243.231 127.59 244.867 127.542 246.107 126.641C247.348 125.739 247.899 124.198 247.511 122.715L246.867 120.257L248.832 118.647C250.018 117.675 250.478 116.104 250.005 114.646Z" fill="#FFAA3F"/>
<path d="M246.108 126.641C247.348 125.739 247.899 124.198 247.511 122.715L246.868 120.257L248.832 118.647C250.019 117.675 250.479 116.104 250.005 114.646C249.531 113.187 248.236 112.187 246.705 112.098L244.169 111.95L243.245 109.584C242.687 108.156 241.335 107.232 239.802 107.232V125.391L241.94 126.762C243.231 127.59 244.867 127.542 246.108 126.641Z" fill="#FF8A53"/>
<path d="M257.893 155.932H221.71C220.777 155.932 220.021 155.176 220.021 154.243V148.699C220.021 147.767 220.777 147.011 221.71 147.011H257.893C258.825 147.011 259.581 147.767 259.581 148.699V154.243C259.581 155.176 258.825 155.932 257.893 155.932Z" fill="#FFAA3F"/>
<path d="M259.581 154.243V148.699C259.581 147.767 258.826 147.011 257.893 147.011H239.802V155.932H257.893C258.826 155.932 259.581 155.176 259.581 154.243Z" fill="#FF8A53"/>
<path d="M261.493 157.62H218.111C217.179 157.62 216.423 156.864 216.423 155.931C216.423 154.999 217.179 154.243 218.111 154.243H261.493C262.425 154.243 263.181 154.999 263.181 155.931C263.181 156.864 262.425 157.62 261.493 157.62Z" fill="#344779"/>
<path d="M263.181 155.931C263.181 154.999 262.425 154.243 261.493 154.243H239.802V157.62H261.493C262.425 157.62 263.181 156.864 263.181 155.931Z" fill="#0C1638"/>
<path d="M240.398 209C237.631 209 235.166 208.524 233.004 207.573C230.855 206.609 229.156 205.287 227.909 203.606C226.673 201.913 226.037 199.961 226 197.749H234.079C234.129 198.675 234.431 199.491 234.987 200.195C235.555 200.887 236.309 201.425 237.248 201.808C238.187 202.191 239.243 202.383 240.417 202.383C241.64 202.383 242.72 202.166 243.659 201.734C244.598 201.301 245.333 200.702 245.864 199.936C246.396 199.17 246.661 198.286 246.661 197.285C246.661 196.272 246.377 195.376 245.809 194.597C245.253 193.807 244.45 193.189 243.4 192.744C242.362 192.299 241.127 192.077 239.694 192.077H236.155V186.182H239.694C240.904 186.182 241.973 185.972 242.9 185.552C243.838 185.132 244.567 184.551 245.086 183.809C245.605 183.056 245.864 182.178 245.864 181.177C245.864 180.226 245.636 179.392 245.179 178.675C244.734 177.946 244.104 177.377 243.289 176.97C242.486 176.562 241.547 176.358 240.472 176.358C239.385 176.358 238.391 176.556 237.489 176.951C236.587 177.334 235.864 177.884 235.321 178.601C234.777 179.317 234.487 180.158 234.45 181.122H226.76C226.797 178.934 227.421 177.007 228.631 175.338C229.842 173.67 231.473 172.366 233.523 171.427C235.586 170.476 237.915 170 240.509 170C243.128 170 245.42 170.476 247.384 171.427C249.348 172.379 250.874 173.664 251.961 175.283C253.06 176.889 253.604 178.693 253.592 180.695C253.604 182.821 252.943 184.594 251.609 186.015C250.287 187.436 248.564 188.338 246.439 188.721V189.018C249.231 189.376 251.356 190.346 252.813 191.928C254.283 193.498 255.012 195.462 255 197.823C255.012 199.985 254.388 201.907 253.128 203.587C251.881 205.268 250.157 206.59 247.958 207.554C245.759 208.518 243.239 209 240.398 209Z" fill="#FFD316"/>
</svg>
