<svg width="283" height="224" viewBox="0 0 283 224" fill="none" xmlns="http://www.w3.org/2000/svg">
<path d="M182.865 108.722C191.702 108.722 198.865 115.885 198.865 124.722L198.865 223.99L84.1355 223.99L84.1355 124.722C84.1355 115.885 91.299 108.722 100.136 108.722L182.865 108.722Z" fill="#FF6C6C"/>
<path d="M182.865 108.722C191.702 108.722 198.865 115.885 198.865 124.722L198.865 223.454L141.5 223.454L141.5 108.722L182.865 108.722Z" fill="#E63950"/>
<path d="M0 155.864C0 147.027 7.16344 139.864 16 139.864H84.1351V224H16C7.16342 224 0 216.837 0 208V155.864Z" fill="#E63950"/>
<path d="M283 173.893C283 165.056 275.837 157.893 267 157.893H198.865V223.454H267C275.837 223.454 283 216.29 283 207.454V173.893Z" fill="#AE2538"/>
<path d="M30.6622 105.548H30.661C15.9601 105.548 4 93.5851 4 78.8799V69.15C4 67.8933 5.01881 66.8745 6.27549 66.8745H20.8952C22.1519 66.8745 23.1707 67.8933 23.1707 69.15C23.1707 70.4067 22.1519 71.4256 20.8952 71.4256H8.55097V78.8799C8.55097 91.0755 18.4695 100.997 30.6611 100.997C31.9178 100.997 32.9372 102.016 32.9372 103.273C32.9372 104.529 31.919 105.548 30.6622 105.548ZM55.0102 105.548C53.7535 105.548 52.7335 104.53 52.7335 103.273C52.7335 102.016 53.7511 100.997 55.0078 100.997H55.0102C67.201 100.997 77.1189 91.0756 77.1189 78.88V71.4256H64.7747C63.5181 71.4256 62.4993 70.4067 62.4993 69.15C62.4993 67.8933 63.5181 66.8745 64.7747 66.8745H79.3944C80.6511 66.8745 81.6699 67.8933 81.6699 69.15V78.8799C81.6699 93.5851 69.7104 105.548 55.0102 105.548Z" fill="#FFAA3F"/>
<path d="M64.7541 62H20.8956C19.6389 62 18.6201 63.0188 18.6201 64.2755V86.2116C18.6201 91.0349 19.8668 95.0814 22.4311 98.5821C27.522 105.532 35.7494 107.603 35.6766 112.992C35.6766 118.422 23.4933 118.844 23.4933 127.646C23.4933 128.903 24.5121 129.922 25.7688 129.922H59.8807C61.1374 129.922 62.1562 128.903 62.1562 127.646C62.1562 118.844 49.973 118.422 49.973 112.992C49.9003 107.603 58.1276 105.532 63.2184 98.5821C65.7828 95.0814 67.0294 91.0349 67.0294 86.2116V64.2755C67.0296 63.0188 66.0108 62 64.7541 62Z" fill="#FFD316"/>
<path d="M62.1564 127.646C62.1564 118.844 49.9731 118.422 49.9731 112.992C49.9004 107.603 58.1277 105.532 63.2186 98.5821C65.7829 95.0814 67.0295 91.0349 67.0295 86.2116V64.2755C67.0295 63.0188 66.0107 62 64.7541 62H42.8252V129.922H59.881C61.1375 129.922 62.1564 128.903 62.1564 127.646Z" fill="#FFAA3F"/>
<path d="M56.5793 81.7425C55.9405 79.7766 54.1943 78.4284 52.1305 78.3081L48.7117 78.1091L47.4661 74.9192C46.714 72.9937 44.8924 71.7493 42.8252 71.7493C40.758 71.7493 38.9364 72.9935 38.1842 74.9191L36.9386 78.1091L33.5198 78.3081C31.4561 78.4284 29.7099 79.7764 29.0711 81.7425C28.4323 83.7087 29.0527 85.8258 30.6518 87.1359L33.3004 89.3065L32.4333 92.6193C31.91 94.6191 32.6522 96.6965 34.3249 97.9119C35.9973 99.1267 38.2024 99.1909 39.9426 98.0751L42.8253 96.2266L45.7081 98.0751C47.4482 99.1909 49.6533 99.1269 51.3258 97.9119C52.9984 96.6965 53.7407 94.6191 53.2173 92.6193L52.3502 89.3065L54.9989 87.1359C56.5975 85.8258 57.2181 83.7088 56.5793 81.7425Z" fill="#FFAA3F"/>
<path d="M51.3255 97.9121C52.9981 96.6967 53.7404 94.6193 53.217 92.6196L52.3499 89.3067L54.9986 87.1362C56.5976 85.8261 57.2181 83.7091 56.5793 81.7427C55.9405 79.7768 54.1943 78.4286 52.1306 78.3083L48.7117 78.1093L47.4661 74.9195C46.714 72.9939 44.8924 71.7495 42.8252 71.7495V96.2269L45.7079 98.0754C47.4481 99.191 49.653 99.127 51.3255 97.9121Z" fill="#FF8A53"/>
<path d="M67.2121 137.396H18.4366C17.1799 137.396 16.1611 136.377 16.1611 135.12V127.646C16.1611 126.39 17.1799 125.371 18.4366 125.371H67.2121C68.4688 125.371 69.4876 126.39 69.4876 127.646V135.12C69.4876 136.377 68.4689 137.396 67.2121 137.396Z" fill="#FFAA3F"/>
<path d="M69.4881 135.12V127.646C69.4881 126.39 68.4693 125.371 67.2126 125.371H42.8252V137.396H67.2128C68.4695 137.396 69.4881 136.377 69.4881 135.12Z" fill="#FF8A53"/>
<path d="M72.0635 139.671H13.5851C12.3284 139.671 11.3096 138.653 11.3096 137.396C11.3096 136.139 12.3284 135.12 13.5851 135.12H72.0637C73.3204 135.12 74.3392 136.139 74.3392 137.396C74.3392 138.653 73.3202 139.671 72.0635 139.671Z" fill="#344779"/>
<path d="M74.3399 137.396C74.3399 136.139 73.3211 135.12 72.0644 135.12H42.8252V139.671H72.0646C73.3211 139.671 74.3399 138.653 74.3399 137.396Z" fill="#0C1638"/>
<path d="M27.4189 201V194.538L42.6885 180.556C43.9872 179.314 45.0764 178.195 45.9561 177.201C46.8498 176.207 47.527 175.233 47.9878 174.28C48.4486 173.314 48.6791 172.271 48.6791 171.153C48.6791 169.91 48.3928 168.84 47.8203 167.942C47.2477 167.031 46.4658 166.333 45.4743 165.85C44.4829 165.353 43.3588 165.105 42.102 165.105C40.7894 165.105 39.6444 165.367 38.6669 165.892C37.6894 166.416 36.9354 167.169 36.4047 168.149C35.8741 169.13 35.6088 170.297 35.6088 171.65H27C27 168.874 27.6354 166.465 28.9061 164.421C30.1768 162.377 31.9572 160.796 34.2473 159.678C36.5374 158.559 39.1766 158 42.1649 158C45.2369 158 47.911 158.539 50.1872 159.616C52.4773 160.679 54.2577 162.156 55.5284 164.048C56.7991 165.94 57.4345 168.108 57.4345 170.552C57.4345 172.154 57.1133 173.735 56.4709 175.295C55.8426 176.856 54.7185 178.589 53.0986 180.494C51.4788 182.386 49.1957 184.658 46.2493 187.309L39.9865 193.378V193.668H58V201H27.4189Z" fill="#FFD316"/>
</svg>
