<svg width="518" height="518" viewBox="0 0 518 518" fill="none" xmlns="http://www.w3.org/2000/svg">
<circle cx="259" cy="259" r="259" fill="#C5EAFF" fill-opacity="0.75"/>
<g clip-path="url(#clip0_45_92)">
<path d="M351.136 216.153V216.234C351.136 234.01 330.801 248.25 313.005 248.25H205.995C188.174 248.25 167.803 233.97 167.863 216.153C173.473 211.52 177.895 205.758 180.92 199.333C183.945 192.909 185.568 185.827 185.568 178.553V128.64C185.568 87.7054 218.53 54.0202 259.464 54H259.5C300.333 54 333.431 87.0984 333.431 127.931V178.553C333.431 193.101 339.921 206.886 351.136 216.153Z" fill="#42789D"/>
<path d="M351.136 216.153V216.234C351.136 234.01 330.801 248.25 313.005 248.25H259.5V54C300.333 54 333.431 87.0984 333.431 127.931V178.553C333.431 193.101 339.922 206.886 351.136 216.153Z" fill="#004B98"/>
<path d="M389 313H343.28L335.698 305.412L328.11 313H190.895L183.302 305.412L175.715 313H130C133.268 286.134 151.995 263.684 177.834 255.646L195.251 250.228H195.256L259.5 250.223H323.729L341.166 255.646C366.97 263.613 385.798 286.367 389 313Z" fill="#FFE227"/>
<path d="M389 313H343.28L335.697 305.412L328.109 313H259.5V250.223H323.729L341.166 255.646C366.97 263.613 385.798 286.367 389 313ZM175.717 282.521H190.893V313H175.717V282.521Z" fill="#FFBF2D"/>
<path d="M328.107 282.521H343.283V313H328.107V282.521Z" fill="#EB9731"/>
<path d="M291.005 240.04H227.995L195.256 250.228L200.871 266.173C210.315 293.024 247.643 294.733 259.5 268.854C271.357 294.733 308.685 293.024 318.129 266.173L323.729 250.223L291.005 240.04Z" fill="#F1F1FA"/>
<path d="M323.729 250.223L318.129 266.173C308.685 293.024 271.357 294.733 259.5 268.854V240.04H291.005L323.729 250.223Z" fill="#DED6FA"/>
<path d="M291.005 240.04C287.853 259.247 273.674 268.854 259.5 268.854C245.326 268.854 231.147 259.247 227.995 240.04L234.834 215.916H284.166L291.005 240.04Z" fill="#FAB096"/>
<path d="M291.005 240.04C287.853 259.247 273.674 268.854 259.5 268.854V215.916H284.166L291.005 240.04Z" fill="#E38B85"/>
<path d="M305.129 130.268V175.689C305.243 201.49 285.594 224.102 259.5 224.262C234.298 224.262 213.872 202.515 213.872 175.689V130.268C222.623 130.268 230.545 126.722 236.281 120.986C242.013 115.249 245.559 107.328 245.559 98.5763C245.559 109.503 251.088 119.139 259.5 124.835C264.564 128.265 270.675 130.268 277.251 130.268H305.129Z" fill="#FFC7B8"/>
<path d="M305.129 130.268V175.689C305.243 201.49 285.594 224.102 259.5 224.262V124.835C264.564 128.265 270.674 130.268 277.251 130.268H305.129Z" fill="#FAB096"/>
<path d="M244.031 179.959H274.969V195.135H244.031V179.959Z" fill="#FAB096"/>
<path d="M259.5 179.959H274.969V195.135H259.5V179.959Z" fill="#E38B85"/>
</g>
<path d="M259.5 386.611C286.838 386.611 309 364.449 309 337.111C309 309.773 286.838 287.611 259.5 287.611C232.162 287.611 210 309.773 210 337.111C210 364.449 232.162 386.611 259.5 386.611Z" fill="#F1F1FA"/>
<path d="M309 337.111C309 364.446 286.835 386.611 259.5 386.611V287.611C286.835 287.611 309 309.77 309 337.111Z" fill="#DED6FA"/>
<path d="M284.379 327.69V346.532H269.003V361.908H250.16V346.532H234.785V327.69H250.16V312.314H269.003V327.69H284.379Z" fill="#76E4D7"/>
<path d="M284.379 327.69V346.532H269.003V361.908H259.5V312.314H269.003V327.69H284.379Z" fill="#50B2DE"/>
<path d="M159.005 401.909V431H152.925V406.909H141.164V431H135.084V401.909H159.005ZM170.968 431.412C169.576 431.412 168.336 431.17 167.247 430.688C166.158 430.195 165.296 429.471 164.662 428.514C164.037 427.548 163.724 426.346 163.724 424.906C163.724 423.694 163.947 422.676 164.392 421.852C164.837 421.028 165.443 420.366 166.21 419.864C166.977 419.362 167.848 418.983 168.824 418.727C169.808 418.472 170.841 418.292 171.92 418.188C173.189 418.055 174.212 417.932 174.988 417.818C175.765 417.695 176.328 417.515 176.679 417.278C177.029 417.042 177.204 416.691 177.204 416.227V416.142C177.204 415.242 176.92 414.546 176.352 414.054C175.793 413.562 174.998 413.315 173.966 413.315C172.877 413.315 172.01 413.557 171.366 414.04C170.722 414.513 170.296 415.11 170.088 415.83L164.491 415.375C164.775 414.049 165.334 412.903 166.167 411.938C167.001 410.962 168.075 410.214 169.392 409.693C170.717 409.163 172.252 408.898 173.994 408.898C175.206 408.898 176.366 409.04 177.474 409.324C178.592 409.608 179.581 410.048 180.443 410.645C181.314 411.241 182.001 412.009 182.502 412.946C183.004 413.874 183.255 414.987 183.255 416.284V431H177.517V427.974H177.346C176.996 428.656 176.527 429.258 175.94 429.778C175.353 430.29 174.647 430.692 173.824 430.986C173 431.27 172.048 431.412 170.968 431.412ZM172.701 427.236C173.592 427.236 174.377 427.061 175.059 426.71C175.741 426.35 176.276 425.867 176.664 425.261C177.053 424.655 177.247 423.969 177.247 423.202V420.886C177.057 421.009 176.797 421.123 176.466 421.227C176.144 421.322 175.779 421.412 175.372 421.497C174.965 421.573 174.557 421.644 174.15 421.71C173.743 421.767 173.374 421.819 173.042 421.866C172.332 421.971 171.712 422.136 171.181 422.364C170.651 422.591 170.239 422.899 169.946 423.287C169.652 423.666 169.505 424.139 169.505 424.707C169.505 425.531 169.804 426.161 170.4 426.597C171.006 427.023 171.773 427.236 172.701 427.236ZM207.027 409.182V426.824H210.507V438.017H204.626V431H187.95V409.182H193.731V426.241H201.316V409.182H207.027ZM220.02 423.017L227.875 409.182H233.841V431H228.074V417.122L220.248 431H214.239V409.182H220.02V423.017ZM248.635 431.426C246.391 431.426 244.459 430.972 242.84 430.062C241.23 429.144 239.989 427.847 239.118 426.17C238.247 424.485 237.811 422.491 237.811 420.19C237.811 417.946 238.247 415.976 239.118 414.281C239.989 412.586 241.216 411.265 242.797 410.318C244.388 409.371 246.254 408.898 248.394 408.898C249.833 408.898 251.173 409.13 252.414 409.594C253.664 410.048 254.753 410.735 255.681 411.653C256.618 412.572 257.347 413.727 257.868 415.119C258.389 416.502 258.65 418.121 258.65 419.977V421.639H240.226V417.889H252.953C252.953 417.018 252.764 416.246 252.385 415.574C252.007 414.902 251.481 414.376 250.809 413.997C250.146 413.609 249.374 413.415 248.493 413.415C247.575 413.415 246.76 413.628 246.05 414.054C245.349 414.471 244.8 415.034 244.402 415.744C244.005 416.445 243.801 417.226 243.792 418.088V421.653C243.792 422.733 243.99 423.666 244.388 424.452C244.795 425.238 245.368 425.844 246.107 426.27C246.846 426.696 247.721 426.909 248.735 426.909C249.407 426.909 250.023 426.814 250.581 426.625C251.14 426.436 251.618 426.152 252.016 425.773C252.414 425.394 252.717 424.93 252.925 424.381L258.522 424.75C258.238 426.095 257.655 427.269 256.775 428.273C255.903 429.267 254.776 430.044 253.394 430.602C252.021 431.152 250.435 431.426 248.635 431.426ZM277.783 417.676V422.435H266.391V417.676H277.783ZM268.38 409.182V431H262.598V409.182H268.38ZM281.576 409.182V431H275.837V409.182H281.576ZM284.079 413.94V409.182H303.852V413.94H296.821V431H291.054V413.94H284.079ZM316.892 431V401.909H321.906L333.582 421.923H333.824V401.909H338.895V431H333.951L322.233 411.057H321.991V431H316.892ZM342.787 422.506V419.224H355.343V422.506H342.787ZM349.051 416.866C347.621 416.866 346.38 416.559 345.329 415.943C344.288 415.328 343.483 414.49 342.914 413.429C342.346 412.368 342.062 411.166 342.062 409.821V408.571C342.062 407.236 342.346 406.038 342.914 404.977C343.483 403.907 344.288 403.064 345.329 402.449C346.371 401.833 347.602 401.526 349.022 401.526C350.462 401.526 351.698 401.833 352.73 402.449C353.771 403.064 354.572 403.907 355.13 404.977C355.699 406.038 355.983 407.236 355.983 408.571V409.821C355.983 411.156 355.703 412.354 355.145 413.415C354.595 414.475 353.8 415.318 352.758 415.943C351.726 416.559 350.49 416.866 349.051 416.866ZM349.051 413.344C349.95 413.344 350.646 413.027 351.139 412.392C351.641 411.748 351.892 410.891 351.892 409.821V408.571C351.892 407.51 351.645 406.668 351.153 406.043C350.661 405.418 349.95 405.105 349.022 405.105C348.104 405.105 347.398 405.418 346.906 406.043C346.423 406.668 346.181 407.51 346.181 408.571V409.821C346.181 410.891 346.428 411.748 346.92 412.392C347.413 413.027 348.123 413.344 349.051 413.344ZM382.698 401.909V431H376.547V407.747H376.377L369.715 411.923V406.469L376.917 401.909H382.698Z" fill="#335A8C"/>
<defs>
<clipPath id="clip0_45_92">
<rect width="259" height="259" fill="white" transform="translate(130 54)"/>
</clipPath>
</defs>
</svg>
