<svg width="518" height="518" viewBox="0 0 518 518" fill="none" xmlns="http://www.w3.org/2000/svg">
<circle cx="259" cy="259" r="259" fill="#C5EAFF" fill-opacity="0.75"/>
<path d="M344.648 298.63V320.536C344.648 321.72 344.177 322.855 343.34 323.693C342.503 324.53 341.368 325 340.184 325H177.256C176.072 325 174.937 324.53 174.1 323.693C173.262 322.855 172.792 321.72 172.792 320.536V298.63C172.792 281.785 182.808 267.272 197.209 260.727C191.333 256.052 182.377 249.768 175.861 236.249C166.786 217.446 168.339 195.265 179.901 177.902C186.181 168.476 189.532 157.402 189.531 146.075V121.898C189.531 91.0821 214.513 66.1006 245.329 66.1006H272.111C302.929 66.1006 327.909 91.0905 327.909 121.908C327.909 147.503 327.284 152.517 330.369 162.697C334.724 177.093 340.476 178.874 344.91 193.525C351.88 216.555 344.171 241.671 325.175 256.793L320.231 260.727C334.632 267.272 344.648 281.785 344.648 298.63Z" fill="#FFEBD2"/>
<path d="M281.011 240.969C266.913 247.26 250.339 247.176 236.429 240.969C237.711 236.971 237.517 234.199 237.517 229.905C250.719 235.4 266.094 235.661 279.923 229.905C279.923 234.135 279.721 236.947 281.011 240.969Z" fill="#FFDFBA"/>
<path d="M344.648 298.63V320.536C344.648 323.002 342.65 325 340.184 325H177.256C174.79 325 172.792 323.002 172.792 320.536V298.63C172.792 275.66 191.414 257.022 214.4 257.022C219.505 257.022 224.226 255.371 228.054 252.57L229.058 259.07C246.523 272.59 270.917 272.59 288.382 259.07L289.386 252.57C299.785 260.18 305.637 254.106 320.231 260.727C334.632 267.272 344.648 281.785 344.648 298.63Z" fill="#FFA4B8"/>
<path d="M288.382 259.07L278.227 325H239.213L229.058 259.07C246.523 272.59 270.917 272.59 288.382 259.07Z" fill="#E3F7FC"/>
<path d="M242.518 325H239.213L229.058 259.07C235.803 264.298 238.26 263.576 238.798 267.066L246.93 319.857C247.346 322.561 245.254 325 242.518 325Z" fill="#CAF1FC"/>
<path d="M337.483 177.818C354.541 203.337 349.182 237.681 325.175 256.793L320.231 260.727C314.991 258.35 309.172 257.022 303.04 257.022C290.319 257.022 279.923 246.744 279.923 233.956V229.905C299.91 221.591 313.959 201.878 313.959 178.884V153.624C313.961 151.939 313.484 150.287 312.585 148.862C311.686 147.436 310.401 146.295 308.879 145.57C302.789 142.682 297.561 138.252 293.712 132.72C290.951 128.753 285.585 127.618 281.52 130.232C261.667 142.996 237.94 149.735 212.827 148.427C207.739 148.162 203.481 152.249 203.481 157.344V178.884C203.481 201.878 217.53 221.591 237.517 229.905V233.956C237.517 246.731 227.136 257.022 214.4 257.022C208.268 257.022 202.448 258.35 197.209 260.727C191.356 256.07 182.38 249.774 175.861 236.249C166.792 217.459 168.332 195.276 179.901 177.902C186.181 168.476 189.532 157.402 189.531 146.075V121.898C189.531 91.0866 214.512 66.1006 245.329 66.1006H272.111C302.927 66.1006 327.909 91.0821 327.909 121.898V146.075C327.909 157.368 331.206 168.433 337.483 177.818Z" fill="#42434D"/>
<path d="M297.318 72.1055C303.016 74.9958 300.539 83.6929 294.179 83.0909C289.959 82.6914 261.509 82.8398 262.067 82.8398C231.252 82.8398 206.27 107.821 206.27 138.637V156.586C206.27 160.594 203.48 160.465 203.48 163.712C203.48 193.186 203.6 180.16 203.167 181.432C198.79 194.309 193.533 196.172 189.269 210.264C186.991 217.79 186.242 225.695 187.064 233.514C187.721 239.775 179.003 242.769 175.86 236.249C166.85 217.581 168.261 195.381 179.9 177.902C186.181 168.476 189.532 157.402 189.531 146.075V121.898C189.531 91.0822 214.512 66.1006 245.328 66.1006C273.195 66.1006 282.779 64.7302 297.318 72.1055Z" fill="#585966"/>
<path d="M240.647 231.054C217.895 223.055 203.481 202.124 203.481 178.884V157.346C203.481 152.268 207.716 148.184 212.782 148.424C212.782 148.424 214.229 148.499 215.349 148.53C219.935 148.669 223.568 152.458 223.568 157.045V169.956C223.568 189.39 233.477 206.079 248.13 215.888C256.466 221.468 250.111 234.374 240.647 231.054Z" fill="#FFF3E4"/>
<path d="M230.721 269.867C205.231 270.56 188.973 290.152 188.973 311.464V320.536C188.973 323.002 186.976 325 184.51 325H177.256C174.79 325 172.792 323.002 172.792 320.536C172.792 296.354 172.766 297.871 172.865 296.197C173.521 282.416 181.607 268.655 195.73 261.436C210.986 253.802 217.743 260.31 228.054 252.57C229.322 260.781 228.728 256.929 230.721 269.867Z" fill="#FFBFCB"/>
<path d="M286.716 269.867C312.206 270.56 328.463 290.152 328.463 311.464V320.536C328.463 323.002 330.461 325 332.927 325H340.181C342.647 325 344.645 323.002 344.645 320.536C344.645 296.354 344.671 297.871 344.572 296.197C343.915 282.416 335.83 268.655 321.706 261.436C306.451 253.802 299.694 260.31 289.383 252.57C288.114 260.781 288.708 256.929 286.716 269.867Z" fill="#FF8CA5"/>
<path d="M258.5 386C285.838 386 308 363.838 308 336.5C308 309.162 285.838 287 258.5 287C231.162 287 209 309.162 209 336.5C209 363.838 231.162 386 258.5 386Z" fill="#F1F1FA"/>
<path d="M308 336.5C308 363.835 285.835 386 258.5 386V287C285.835 287 308 309.159 308 336.5Z" fill="#DED6FA"/>
<path d="M283.379 327.079V345.921H268.003V361.297H249.16V345.921H233.785V327.079H249.16V311.703H268.003V327.079H283.379Z" fill="#76E4D7"/>
<path d="M283.379 327.079V345.921H268.003V361.297H258.5V311.703H268.003V327.079H283.379Z" fill="#50B2DE"/>
<path d="M156.192 401.909V431H150.113V406.909H138.351V431H132.272V401.909H156.192ZM168.156 431.412C166.764 431.412 165.523 431.17 164.434 430.688C163.345 430.195 162.484 429.471 161.849 428.514C161.224 427.548 160.912 426.346 160.912 424.906C160.912 423.694 161.134 422.676 161.579 421.852C162.024 421.028 162.63 420.366 163.397 419.864C164.164 419.362 165.036 418.983 166.011 418.727C166.996 418.472 168.028 418.292 169.108 418.188C170.377 418.055 171.399 417.932 172.176 417.818C172.952 417.695 173.516 417.515 173.866 417.278C174.217 417.042 174.392 416.691 174.392 416.227V416.142C174.392 415.242 174.108 414.546 173.539 414.054C172.981 413.562 172.185 413.315 171.153 413.315C170.064 413.315 169.198 413.557 168.554 414.04C167.91 414.513 167.484 415.11 167.275 415.83L161.679 415.375C161.963 414.049 162.521 412.903 163.355 411.938C164.188 410.962 165.263 410.214 166.579 409.693C167.905 409.163 169.439 408.898 171.181 408.898C172.394 408.898 173.554 409.04 174.662 409.324C175.779 409.608 176.769 410.048 177.63 410.645C178.502 411.241 179.188 412.009 179.69 412.946C180.192 413.874 180.443 414.987 180.443 416.284V431H174.704V427.974H174.534C174.183 428.656 173.715 429.258 173.127 429.778C172.54 430.29 171.835 430.692 171.011 430.986C170.187 431.27 169.235 431.412 168.156 431.412ZM169.889 427.236C170.779 427.236 171.565 427.061 172.247 426.71C172.929 426.35 173.464 425.867 173.852 425.261C174.24 424.655 174.434 423.969 174.434 423.202V420.886C174.245 421.009 173.984 421.123 173.653 421.227C173.331 421.322 172.967 421.412 172.559 421.497C172.152 421.573 171.745 421.644 171.338 421.71C170.931 421.767 170.561 421.819 170.23 421.866C169.52 421.971 168.899 422.136 168.369 422.364C167.839 422.591 167.427 422.899 167.133 423.287C166.84 423.666 166.693 424.139 166.693 424.707C166.693 425.531 166.991 426.161 167.588 426.597C168.194 427.023 168.961 427.236 169.889 427.236ZM204.214 409.182V426.824H207.694V438.017H201.814V431H185.137V409.182H190.919V426.241H198.504V409.182H204.214ZM217.208 423.017L225.063 409.182H231.029V431H225.262V417.122L217.435 431H211.426V409.182H217.208V423.017ZM245.823 431.426C243.578 431.426 241.647 430.972 240.027 430.062C238.417 429.144 237.177 427.847 236.306 426.17C235.435 424.485 234.999 422.491 234.999 420.19C234.999 417.946 235.435 415.976 236.306 414.281C237.177 412.586 238.403 411.265 239.985 410.318C241.576 409.371 243.441 408.898 245.581 408.898C247.021 408.898 248.361 409.13 249.601 409.594C250.851 410.048 251.94 410.735 252.868 411.653C253.806 412.572 254.535 413.727 255.056 415.119C255.577 416.502 255.837 418.121 255.837 419.977V421.639H237.414V417.889H250.141C250.141 417.018 249.952 416.246 249.573 415.574C249.194 414.902 248.668 414.376 247.996 413.997C247.333 413.609 246.561 413.415 245.681 413.415C244.762 413.415 243.948 413.628 243.238 414.054C242.537 414.471 241.988 415.034 241.59 415.744C241.192 416.445 240.989 417.226 240.979 418.088V421.653C240.979 422.733 241.178 423.666 241.576 424.452C241.983 425.238 242.556 425.844 243.294 426.27C244.033 426.696 244.909 426.909 245.922 426.909C246.595 426.909 247.21 426.814 247.769 426.625C248.328 426.436 248.806 426.152 249.203 425.773C249.601 425.394 249.904 424.93 250.113 424.381L255.709 424.75C255.425 426.095 254.843 427.269 253.962 428.273C253.091 429.267 251.964 430.044 250.581 430.602C249.208 431.152 247.622 431.426 245.823 431.426ZM274.971 417.676V422.435H263.578V417.676H274.971ZM265.567 409.182V431H259.786V409.182H265.567ZM278.763 409.182V431H273.025V409.182H278.763ZM281.267 413.94V409.182H301.039V413.94H294.008V431H288.241V413.94H281.267ZM314.079 431V401.909H319.093L330.77 421.923H331.011V401.909H336.082V431H331.139L319.42 411.057H319.179V431H314.079ZM339.974 422.506V419.224H352.531V422.506H339.974ZM346.238 416.866C344.808 416.866 343.568 416.559 342.517 415.943C341.475 415.328 340.67 414.49 340.102 413.429C339.534 412.368 339.25 411.166 339.25 409.821V408.571C339.25 407.236 339.534 406.038 340.102 404.977C340.67 403.907 341.475 403.064 342.517 402.449C343.558 401.833 344.789 401.526 346.21 401.526C347.649 401.526 348.885 401.833 349.917 402.449C350.959 403.064 351.759 403.907 352.318 404.977C352.886 406.038 353.17 407.236 353.17 408.571V409.821C353.17 411.156 352.891 412.354 352.332 413.415C351.783 414.475 350.987 415.318 349.946 415.943C348.913 416.559 347.678 416.866 346.238 416.866ZM346.238 413.344C347.138 413.344 347.834 413.027 348.326 412.392C348.828 411.748 349.079 410.891 349.079 409.821V408.571C349.079 407.51 348.833 406.668 348.341 406.043C347.848 405.418 347.138 405.105 346.21 405.105C345.291 405.105 344.586 405.418 344.093 406.043C343.61 406.668 343.369 407.51 343.369 408.571V409.821C343.369 410.891 343.615 411.748 344.108 412.392C344.6 413.027 345.31 413.344 346.238 413.344ZM367.229 431V426.568L377.584 416.98C378.465 416.128 379.203 415.361 379.8 414.679C380.406 413.997 380.865 413.33 381.178 412.676C381.49 412.013 381.647 411.298 381.647 410.531C381.647 409.679 381.453 408.945 381.064 408.33C380.676 407.705 380.146 407.226 379.473 406.895C378.801 406.554 378.039 406.384 377.186 406.384C376.296 406.384 375.52 406.563 374.857 406.923C374.194 407.283 373.683 407.799 373.323 408.472C372.963 409.144 372.783 409.944 372.783 410.872H366.945C366.945 408.969 367.376 407.316 368.238 405.915C369.099 404.513 370.307 403.429 371.86 402.662C373.413 401.895 375.203 401.511 377.229 401.511C379.312 401.511 381.126 401.881 382.669 402.619C384.222 403.348 385.43 404.362 386.292 405.659C387.153 406.956 387.584 408.443 387.584 410.119C387.584 411.218 387.366 412.302 386.931 413.372C386.505 414.442 385.742 415.631 384.644 416.938C383.545 418.235 381.997 419.793 379.999 421.611L375.752 425.773V425.972H387.968V431H367.229Z" fill="#335A8C"/>
</svg>
